# Blender v2.69 (sub 0) OBJ File: ''
# www.blender.org
mtllib cube.mtl
o Cube.002
v -1.000000 -1.000000 1.000000
v -1.000000 -1.000000 -1.000000
v 1.000000 -1.000000 -1.000000
v 1.000000 -1.000000 1.000000
v -1.000000 1.000000 0.999999
v 1.000000 1.000000 1.000000
v 1.000000 1.000000 -1.000000
v -0.999999 1.000000 -1.000001
vn 0.000000 -1.000000 -0.000000
vn -0.000000 1.000000 0.000000
vn -1.000000 0.000000 -0.000001
vn 0.000000 -0.000000 -1.000000
vn 1.000000 0.000000 0.000000
vn -0.000000 0.000000 1.000000
vn -1.000000 0.000000 0.000000
usemtl Material.003
s off
f 1//1 2//1 4//1
f 5//2 6//2 8//2
f 1//3 5//3 8//3
f 2//4 8//4 3//4
f 3//5 7//5 4//5
f 5//6 1//6 6//6
f 2//1 3//1 4//1
f 6//2 7//2 8//2
f 2//7 1//7 8//7
f 8//4 7//4 3//4
f 7//5 6//5 4//5
f 1//6 4//6 6//6
o Cube.003
v 0.025854 0.027211 0.887942
v -0.025854 0.027211 0.887942
v -0.025854 -0.026972 0.887942
v 0.025854 -0.026972 0.887942
v 0.025854 0.027211 0.024386
v 0.025854 -0.026972 0.024386
v -0.025854 -0.026972 0.024386
v -0.025854 0.027211 0.024386
vn 0.000000 0.000000 1.000000
vn 0.000000 0.000000 -1.000000
vn 0.000000 1.000000 0.000000
vn -1.000000 0.000000 0.000000
vn 0.000000 -1.000000 -0.000000
vn 1.000000 0.000000 0.000000
usemtl Material.001
s off
f 9//8 10//8 12//8
f 13//9 14//9 16//9
f 9//10 13//10 10//10
f 10//11 16//11 11//11
f 11//12 15//12 12//12
f 13//13 9//13 14//13
f 10//8 11//8 12//8
f 14//9 15//9 16//9
f 13//10 16//10 10//10
f 16//11 15//11 11//11
f 15//12 14//12 12//12
f 9//13 12//13 14//13
o Cube.004
v 0.027530 0.027300 -0.025854
v 0.027530 0.027300 0.025854
v -0.026653 0.027300 0.025854
v -0.026653 0.027300 -0.025854
v 0.027530 0.890857 -0.025854
v -0.026653 0.890857 -0.025854
v -0.026653 0.890857 0.025854
v 0.027530 0.890857 0.025854
vn 0.000000 -1.000000 -0.000000
vn 0.000000 1.000000 0.000000
vn 1.000000 0.000000 0.000000
vn 0.000000 -0.000000 1.000000
vn -1.000000 0.000000 0.000000
vn 0.000000 0.000000 -1.000000
usemtl Material.002
s off
f 17//14 18//14 20//14
f 21//15 22//15 24//15
f 17//16 21//16 18//16
f 18//17 24//17 19//17
f 19//18 23//18 20//18
f 21//19 17//19 22//19
f 18//14 19//14 20//14
f 22//15 23//15 24//15
f 21//16 24//16 18//16
f 24//17 23//17 19//17
f 23//18 22//18 20//18
f 17//19 20//19 22//19
o Cube.000_Cube.005
v -0.027300 -0.025854 -0.027530
v -0.027300 0.025854 -0.027530
v -0.027300 0.025854 0.026653
v -0.027300 -0.025854 0.026653
v -0.890857 -0.025854 -0.027530
v -0.890857 -0.025854 0.026653
v -0.890857 0.025854 0.026653
v -0.890857 0.025854 -0.027530
vn 1.000000 0.000000 0.000000
vn -1.000000 -0.000003 0.000000
vn 0.000000 0.000000 -1.000000
vn 0.000000 1.000000 0.000000
vn 0.000000 -0.000000 1.000000
vn 0.000000 -1.000000 -0.000000
vn -1.000000 0.000003 0.000000
usemtl Material.004
s off
f 25//20 26//20 28//20
f 29//21 30//21 32//21
f 25//22 29//22 26//22
f 26//23 32//23 27//23
f 27//24 31//24 28//24
f 29//25 25//25 30//25
f 26//20 27//20 28//20
f 30//26 31//26 32//26
f 29//22 32//22 26//22
f 32//23 31//23 27//23
f 31//24 30//24 28//24
f 25//25 28//25 30//25
