# Blender v2.69 (sub 0) OBJ File: ''
# www.blender.org
mtllib cube.mtl
o Cube.002
v -1.000000 -1.000000 1.000000
v -1.000000 -1.000000 -1.000000
v 1.000000 -1.000000 1.000000
v -1.000000 1.000000 0.999999
v 1.000000 1.000000 1.000000
v -0.999999 1.000000 -1.000001
v 1.000000 -1.000000 -1.000000
v 1.000000 1.000000 -1.000000
vn 0.000000 -1.000000 -0.000000
vn -0.000000 1.000000 0.000000
vn -1.000000 0.000000 -0.000001
vn 0.000000 -0.000000 -1.000000
vn 1.000000 0.000000 0.000000
vn -0.000000 0.000000 1.000000
vn -1.000000 0.000000 0.000000
usemtl Material.003
s off
f 1//1 2//1 3//1
f 4//2 5//2 6//2
f 1//3 4//3 6//3
f 2//4 6//4 7//4
f 7//5 8//5 3//5
f 4//6 1//6 5//6
f 2//1 7//1 3//1
f 5//2 8//2 6//2
f 2//7 1//7 6//7
f 6//4 8//4 7//4
f 8//5 5//5 3//5
f 1//6 3//6 5//6
o Cube.004
v 0.027530 0.027300 -0.025854
v 0.027530 0.027300 0.025854
v -0.026653 0.027300 -0.025854
v 0.027530 0.890857 -0.025854
v -0.026653 0.890857 -0.025854
v 0.027530 0.890857 0.025854
v -0.026653 0.027300 0.025854
v -0.026653 0.890857 0.025854
vn 0.000000 -1.000000 -0.000000
vn 0.000000 1.000000 0.000000
vn 1.000000 0.000000 0.000000
vn 0.000000 -0.000000 1.000000
vn -1.000000 0.000000 0.000000
vn 0.000000 0.000000 -1.000000
usemtl Material.002
s off
f 9//8 10//8 11//8
f 12//9 13//9 14//9
f 9//10 12//10 10//10
f 10//11 14//11 15//11
f 15//12 16//12 11//12
f 12//13 9//13 13//13
f 10//8 15//8 11//8
f 13//9 16//9 14//9
f 12//10 14//10 10//10
f 14//11 16//11 15//11
f 16//12 13//12 11//12
f 9//13 11//13 13//13
o Cube.000_Cube.005
v -0.027300 -0.025854 -0.027530
v -0.027300 0.025854 -0.027530
v -0.027300 -0.025854 0.026653
v -0.890857 -0.025854 -0.027530
v -0.890857 -0.025854 0.026653
v -0.890857 0.025854 -0.027530
v -0.027300 0.025854 0.026653
v -0.890857 0.025854 0.026653
vn 1.000000 0.000000 0.000000
vn -1.000000 -0.000003 0.000000
vn 0.000000 0.000000 -1.000000
vn 0.000000 1.000000 0.000000
vn 0.000000 -0.000000 1.000000
vn 0.000000 -1.000000 -0.000000
vn -1.000000 0.000003 0.000000
usemtl Material.004
s off
f 17//14 18//14 19//14
f 20//15 21//15 22//15
f 17//16 20//16 18//16
f 18//17 22//17 23//17
f 23//18 24//18 19//18
f 20//19 17//19 21//19
f 18//14 23//14 19//14
f 21//20 24//20 22//20
f 20//16 22//16 18//16
f 22//17 24//17 23//17
f 24//18 21//18 19//18
f 17//19 19//19 21//19
o Cube.003
v 0.025854 0.027211 0.887942
v -0.025854 0.027211 0.887942
v 0.025854 -0.026972 0.887942
v 0.025854 0.027211 0.024386
v 0.025854 -0.026972 0.024386
v -0.025854 0.027211 0.024386
v -0.025854 -0.026972 0.887942
v -0.025854 -0.026972 0.024386
vn 0.000000 0.000000 1.000000
vn 0.000000 0.000000 -1.000000
vn 0.000000 1.000000 0.000000
vn -1.000000 0.000000 0.000000
vn 0.000000 -1.000000 -0.000000
vn 1.000000 0.000000 0.000000
usemtl Material.001
s off
f 25//21 26//21 27//21
f 28//22 29//22 30//22
f 25//23 28//23 26//23
f 26//24 30//24 31//24
f 31//25 32//25 27//25
f 28//26 25//26 29//26
f 26//21 31//21 27//21
f 29//22 32//22 30//22
f 28//23 30//23 26//23
f 30//24 32//24 31//24
f 32//25 29//25 27//25
f 25//26 27//26 29//26
